<svg xmlns="http://www.w3.org/2000/svg" width="1200" height="900" class="im-unit-painting" viewBox="0 0 400 300" preserveAspectRatio="xMidYMid meet" role="img" aria-label="利维坦，1 个战士；利维坦 · 巨型虫体与触须" data-family="hots_leviathan" data-body-count="1" data-elite-identity="" data-visual-feature="" focusable="false"><defs><linearGradient id="painting-hero-hots_leviathan-1-126-armor" x1=".12" y1="0" x2=".8" y2=".94" gradientUnits="objectBoundingBox"><stop stop-color="#a48a86"/><stop offset=".18" stop-color="#684556"/><stop offset=".42" stop-color="#684556"/><stop offset=".71" stop-color="#281c2c"/><stop offset="1" stop-color="#0b1520"/></linearGradient><linearGradient id="painting-hero-hots_leviathan-1-126-steel" x1="0" y1="0" x2=".9" y2="1"><stop stop-color="#a48a86"/><stop offset=".22" stop-color="#684556"/><stop offset=".49" stop-color="#62727d"/><stop offset=".64" stop-color="#281c2c"/><stop offset="1" stop-color="#18232c"/></linearGradient><linearGradient id="painting-hero-hots_leviathan-1-126-dark" x1="0" x2="1" y2="1"><stop stop-color="#3a4550"/><stop offset=".45" stop-color="#18232d"/><stop offset="1" stop-color="#050c17"/></linearGradient><linearGradient id="painting-hero-hots_leviathan-1-126-skin" x1="0" y1="0" x2="1" y2="1"><stop stop-color="#9d776e"/><stop offset=".27" stop-color="#5c3b50"/><stop offset="1" stop-color="#281b2b"/></linearGradient><linearGradient id="painting-hero-hots_leviathan-1-126-bone" x1="0" y1="0" x2="1" y2="1"><stop stop-color="#e5d8b6"/><stop offset=".25" stop-color="#baa592"/><stop offset=".67" stop-color="#7e6662"/><stop offset="1" stop-color="#3e3043"/></linearGradient><linearGradient id="painting-hero-hots_leviathan-1-126-glass" x1="0" y1="0" x2="1" y2="1"><stop stop-color="#d3b19d"/><stop offset=".17" stop-color="#84b4c0"/><stop offset=".45" stop-color="#315064"/><stop offset="1" stop-color="#080f20"/></linearGradient><radialGradient id="painting-hero-hots_leviathan-1-126-glow"><stop stop-color="#eef5d8"/><stop offset=".25" stop-color="#d3b19d"/><stop offset=".78" stop-color="#52762e"/><stop offset="1" stop-color="#223821"/></radialGradient><linearGradient id="painting-hero-hots_leviathan-1-126-fire" x1="0" y1=".5" x2="1" y2=".5"><stop stop-color="#f7dd99"/><stop offset=".35" stop-color="#d8824e"/><stop offset="1" stop-color="#a34c3630"/></linearGradient><radialGradient id="painting-hero-hots_leviathan-1-126-sky"><stop stop-color="#675367"/><stop offset=".62" stop-color="#251f31"/><stop offset="1" stop-color="#06121f"/></radialGradient><filter id="painting-hero-hots_leviathan-1-126-brush" x="-8%" y="-8%" width="116%" height="116%"><feTurbulence type="fractalNoise" baseFrequency=".32" numOctaves="3" seed="31" result="grain"/><feColorMatrix in="grain" type="saturate" values="0"/><feComposite operator="in" in2="SourceGraphic"/><feBlend in="SourceGraphic" mode="soft-light"/></filter><filter id="painting-hero-hots_leviathan-1-126-rim" x="-14%" y="-14%" width="128%" height="128%"><feDropShadow dx="-1" dy="-1" stdDeviation=".5" flood-color="#d3b19d" flood-opacity=".45"/><feDropShadow dx="3" dy="5" stdDeviation="3" flood-color="#020810" flood-opacity=".75"/></filter><radialGradient id="painting-hero-hots_leviathan-1-126-vignette"><stop offset=".48" stop-color="#04101b00"/><stop offset="1" stop-color="#03101abb"/></radialGradient></defs><rect width="400" height="300" fill="#06131f"/><rect width="400" height="300" fill="url(#painting-hero-hots_leviathan-1-126-sky)"/><path d="M-20 110Q16 59 67 79Q104 31 149 69Q196 23 233 69Q285 48 322 95Q366 65 421 87V153H-20Z" fill="#263a49" stroke="none" stroke-width="0" stroke-linejoin="round" stroke-linecap="round" opacity=".35"/><path d="M-15 176Q39 118 109 154Q160 111 214 153Q281 104 341 144Q380 111 421 142V236H-15Z" fill="#1c2937" stroke="none" stroke-width="0" stroke-linejoin="round" stroke-linecap="round" opacity=".6"/><path d="M0 256Q36 196 54 92L74 74Q74 192 108 260L129 248Q120 182 133 154Q159 176 164 259L242 260Q258 154 281 124Q280 211 307 256L331 251Q343 187 323 69L354 97Q366 173 400 232V300H0Z" fill="#241e29" stroke="none" stroke-width="1.7" stroke-linejoin="round" stroke-linecap="round" /><path d="M0 282Q67 251 131 281Q198 245 259 280Q338 247 400 275V300H0Z" fill="#3a2939" stroke="none" stroke-width="1.7" stroke-linejoin="round" stroke-linecap="round" /><path d="M37 248Q71 212 63 113M341 245Q353 187 341 121" fill="none" stroke="#80657d" stroke-width="4" stroke-linejoin="round" stroke-linecap="round" opacity=".28"/><ellipse cx="337" cy="213" rx="27" ry="34" fill="url(#painting-hero-hots_leviathan-1-126-glow)" stroke="none" stroke-width="0" opacity=".11"/><ellipse cx="76" cy="241" rx="25" ry="15" fill="url(#painting-hero-hots_leviathan-1-126-glow)" stroke="none" stroke-width="0" opacity=".09"/><ellipse cx="199" cy="155" rx="168" ry="144" fill="url(#painting-hero-hots_leviathan-1-126-glow)" stroke="none" stroke-width="0" opacity=".055"/><ellipse cx="201" cy="271" rx="131" ry="19" fill="#03080d" stroke="none" stroke-width="0" opacity=".8"/><g><g class="im-drawn-unit" data-unit-index="1" data-unit-scale="1" transform="translate(0 0)" filter="url(#painting-hero-hots_leviathan-1-126-rim)"><path d="M80 135Q101 66 166 55L236 73Q301 90 330 150L306 203L249 214L197 234L137 221L91 188Z" fill="url(#painting-hero-hots_leviathan-1-126-skin)" stroke="#071018" stroke-width="1.7" stroke-linejoin="round" stroke-linecap="round" /><path d="M84 133L115 89L156 67L189 87L195 128L165 155L119 151Z" fill="url(#painting-hero-hots_leviathan-1-126-armor)" stroke="#071018" stroke-width="1.7" stroke-linejoin="round" stroke-linecap="round" /><path d="M184 86L225 76L275 107L294 147L264 175L217 165L192 133Z" fill="url(#painting-hero-hots_leviathan-1-126-armor)" stroke="#071018" stroke-width="1.7" stroke-linejoin="round" stroke-linecap="round" /><path d="M266 147L321 128L351 148L340 186L310 220L276 203L257 174Z" fill="url(#painting-hero-hots_leviathan-1-126-armor)" stroke="#071018" stroke-width="1.7" stroke-linejoin="round" stroke-linecap="round" /><path d="M306 180L340 170L332 199L312 223L290 207Z" fill="url(#painting-hero-hots_leviathan-1-126-dark)" stroke="#071018" stroke-width="1.7" stroke-linejoin="round" stroke-linecap="round" /><path d="M96 129Q37 117 19 63Q31 128 58 158L100 169M104 193Q61 206 54 250L67 268Q81 229 126 216M145 215Q124 247 104 281L125 293L170 224M216 221Q238 263 231 294L254 286Q269 249 244 213M279 199Q323 231 328 278L349 273Q350 223 310 191" fill="url(#painting-hero-hots_leviathan-1-126-bone)" stroke="#071018" stroke-width="1.7" stroke-linejoin="round" stroke-linecap="round" /><path d="M140 78L122 35L166 63L182 18L201 67L231 36L239 86L277 58L289 105Z" fill="url(#painting-hero-hots_leviathan-1-126-armor)" stroke="#071018" stroke-width="1.7" stroke-linejoin="round" stroke-linecap="round" /><path d="M127 107L158 84L174 104M220 102L247 115L264 142M135 198L175 214M280 179L301 170" fill="none" stroke="#a48a86" stroke-width="2" stroke-linejoin="round" stroke-linecap="round" /><ellipse cx="323" cy="155" rx="7" ry="3" fill="url(#painting-hero-hots_leviathan-1-126-glow)" stroke="none" stroke-width="1.5" /><path d="M294 197l5 -13 3 10 -3 8Z" fill="url(#painting-hero-hots_leviathan-1-126-bone)" stroke="#071018" stroke-width="1.7" stroke-linejoin="round" stroke-linecap="round" /><path d="M299 194l5 -13 3 10 -3 8Z" fill="url(#painting-hero-hots_leviathan-1-126-bone)" stroke="#071018" stroke-width="1.7" stroke-linejoin="round" stroke-linecap="round" /><path d="M304 191l5 -13 3 10 -3 8Z" fill="url(#painting-hero-hots_leviathan-1-126-bone)" stroke="#071018" stroke-width="1.7" stroke-linejoin="round" stroke-linecap="round" /><path d="M309 188l5 -13 3 10 -3 8Z" fill="url(#painting-hero-hots_leviathan-1-126-bone)" stroke="#071018" stroke-width="1.7" stroke-linejoin="round" stroke-linecap="round" /><path d="M314 185l5 -13 3 10 -3 8Z" fill="url(#painting-hero-hots_leviathan-1-126-bone)" stroke="#071018" stroke-width="1.7" stroke-linejoin="round" stroke-linecap="round" /><path d="M319 182l5 -13 3 10 -3 8Z" fill="url(#painting-hero-hots_leviathan-1-126-bone)" stroke="#071018" stroke-width="1.7" stroke-linejoin="round" stroke-linecap="round" /><path d="M324 179l5 -13 3 10 -3 8Z" fill="url(#painting-hero-hots_leviathan-1-126-bone)" stroke="#071018" stroke-width="1.7" stroke-linejoin="round" stroke-linecap="round" /><path d="M329 176l5 -13 3 10 -3 8Z" fill="url(#painting-hero-hots_leviathan-1-126-bone)" stroke="#071018" stroke-width="1.7" stroke-linejoin="round" stroke-linecap="round" /></g></g><ellipse cx="31" cy="89" rx="0.6" ry="0.6" fill="#d3b19d" stroke="none" stroke-width="0" opacity="0.16"/><ellipse cx="128" cy="130" rx="1" ry="1" fill="#a4b1b4" stroke="none" stroke-width="0" opacity="0.23"/><ellipse cx="225" cy="171" rx="1.4" ry="1.4" fill="#a4b1b4" stroke="none" stroke-width="0" opacity="0.30000000000000004"/><ellipse cx="322" cy="212" rx="0.6" ry="0.6" fill="#a4b1b4" stroke="none" stroke-width="0" opacity="0.37"/><ellipse cx="21" cy="253" rx="1" ry="1" fill="#d3b19d" stroke="none" stroke-width="0" opacity="0.44000000000000006"/><ellipse cx="118" cy="6" rx="1.4" ry="1.4" fill="#a4b1b4" stroke="none" stroke-width="0" opacity="0.16"/><ellipse cx="215" cy="47" rx="0.6" ry="0.6" fill="#a4b1b4" stroke="none" stroke-width="0" opacity="0.23"/><ellipse cx="312" cy="88" rx="1" ry="1" fill="#a4b1b4" stroke="none" stroke-width="0" opacity="0.30000000000000004"/><ellipse cx="11" cy="129" rx="1.4" ry="1.4" fill="#d3b19d" stroke="none" stroke-width="0" opacity="0.37"/><ellipse cx="108" cy="170" rx="0.6" ry="0.6" fill="#a4b1b4" stroke="none" stroke-width="0" opacity="0.44000000000000006"/><ellipse cx="205" cy="211" rx="1" ry="1" fill="#a4b1b4" stroke="none" stroke-width="0" opacity="0.16"/><ellipse cx="302" cy="252" rx="1.4" ry="1.4" fill="#a4b1b4" stroke="none" stroke-width="0" opacity="0.23"/><ellipse cx="1" cy="5" rx="0.6" ry="0.6" fill="#d3b19d" stroke="none" stroke-width="0" opacity="0.30000000000000004"/><ellipse cx="98" cy="46" rx="1" ry="1" fill="#a4b1b4" stroke="none" stroke-width="0" opacity="0.37"/><ellipse cx="195" cy="87" rx="1.4" ry="1.4" fill="#a4b1b4" stroke="none" stroke-width="0" opacity="0.44000000000000006"/><ellipse cx="292" cy="128" rx="0.6" ry="0.6" fill="#a4b1b4" stroke="none" stroke-width="0" opacity="0.16"/><ellipse cx="389" cy="169" rx="1" ry="1" fill="#d3b19d" stroke="none" stroke-width="0" opacity="0.23"/><ellipse cx="88" cy="210" rx="1.4" ry="1.4" fill="#a4b1b4" stroke="none" stroke-width="0" opacity="0.30000000000000004"/><ellipse cx="185" cy="251" rx="0.6" ry="0.6" fill="#a4b1b4" stroke="none" stroke-width="0" opacity="0.37"/><ellipse cx="282" cy="4" rx="1" ry="1" fill="#a4b1b4" stroke="none" stroke-width="0" opacity="0.44000000000000006"/><ellipse cx="379" cy="45" rx="1.4" ry="1.4" fill="#d3b19d" stroke="none" stroke-width="0" opacity="0.16"/><ellipse cx="78" cy="86" rx="0.6" ry="0.6" fill="#a4b1b4" stroke="none" stroke-width="0" opacity="0.23"/><ellipse cx="175" cy="127" rx="1" ry="1" fill="#a4b1b4" stroke="none" stroke-width="0" opacity="0.30000000000000004"/><ellipse cx="272" cy="168" rx="1.4" ry="1.4" fill="#a4b1b4" stroke="none" stroke-width="0" opacity="0.37"/><rect width="400" height="300" fill="url(#painting-hero-hots_leviathan-1-126-vignette)" pointer-events="none"/></svg>