<svg xmlns="http://www.w3.org/2000/svg" width="1200" height="900" class="im-unit-painting" viewBox="0 0 400 300" preserveAspectRatio="xMidYMid meet" role="img" aria-label="大和战列巡洋舰，1 个战士；战列巡洋舰 · 锤形舰首与大和炮" data-family="yamato_battlecruiser" data-body-count="1" data-elite-identity="" data-visual-feature="" focusable="false"><defs><linearGradient id="painting-hero-yamato_battlecruiser-1-123-armor" x1=".12" y1="0" x2=".8" y2=".94" gradientUnits="objectBoundingBox"><stop stop-color="#a2b8c1"/><stop offset=".18" stop-color="#375b75"/><stop offset=".42" stop-color="#375b75"/><stop offset=".71" stop-color="#1c2d3b"/><stop offset="1" stop-color="#0b1520"/></linearGradient><linearGradient id="painting-hero-yamato_battlecruiser-1-123-steel" x1="0" y1="0" x2=".9" y2="1"><stop stop-color="#a2b8c1"/><stop offset=".22" stop-color="#375b75"/><stop offset=".49" stop-color="#62727d"/><stop offset=".64" stop-color="#1c2d3b"/><stop offset="1" stop-color="#18232c"/></linearGradient><linearGradient id="painting-hero-yamato_battlecruiser-1-123-dark" x1="0" x2="1" y2="1"><stop stop-color="#3a4550"/><stop offset=".45" stop-color="#18232d"/><stop offset="1" stop-color="#050c17"/></linearGradient><linearGradient id="painting-hero-yamato_battlecruiser-1-123-skin" x1="0" y1="0" x2="1" y2="1"><stop stop-color="#729096"/><stop offset=".27" stop-color="#3d5364"/><stop offset="1" stop-color="#132533"/></linearGradient><linearGradient id="painting-hero-yamato_battlecruiser-1-123-bone" x1="0" y1="0" x2="1" y2="1"><stop stop-color="#e5d8b6"/><stop offset=".25" stop-color="#baa592"/><stop offset=".67" stop-color="#7e6662"/><stop offset="1" stop-color="#3e3043"/></linearGradient><linearGradient id="painting-hero-yamato_battlecruiser-1-123-glass" x1="0" y1="0" x2="1" y2="1"><stop stop-color="#a8d8ec"/><stop offset=".17" stop-color="#84b4c0"/><stop offset=".45" stop-color="#315064"/><stop offset="1" stop-color="#080f20"/></linearGradient><radialGradient id="painting-hero-yamato_battlecruiser-1-123-glow"><stop stop-color="#eef5d8"/><stop offset=".25" stop-color="#a8d8ec"/><stop offset=".78" stop-color="#317080"/><stop offset="1" stop-color="#1a3948"/></radialGradient><linearGradient id="painting-hero-yamato_battlecruiser-1-123-fire" x1="0" y1=".5" x2="1" y2=".5"><stop stop-color="#f7dd99"/><stop offset=".35" stop-color="#d8824e"/><stop offset="1" stop-color="#a34c3630"/></linearGradient><radialGradient id="painting-hero-yamato_battlecruiser-1-123-sky"><stop stop-color="#476274"/><stop offset=".62" stop-color="#182d40"/><stop offset="1" stop-color="#06121f"/></radialGradient><filter id="painting-hero-yamato_battlecruiser-1-123-brush" x="-8%" y="-8%" width="116%" height="116%"><feTurbulence type="fractalNoise" baseFrequency=".32" numOctaves="3" seed="31" result="grain"/><feColorMatrix in="grain" type="saturate" values="0"/><feComposite operator="in" in2="SourceGraphic"/><feBlend in="SourceGraphic" mode="soft-light"/></filter><filter id="painting-hero-yamato_battlecruiser-1-123-rim" x="-14%" y="-14%" width="128%" height="128%"><feDropShadow dx="-1" dy="-1" stdDeviation=".5" flood-color="#a8d8ec" flood-opacity=".45"/><feDropShadow dx="3" dy="5" stdDeviation="3" flood-color="#020810" flood-opacity=".75"/></filter><radialGradient id="painting-hero-yamato_battlecruiser-1-123-vignette"><stop offset=".48" stop-color="#04101b00"/><stop offset="1" stop-color="#03101abb"/></radialGradient></defs><rect width="400" height="300" fill="#06131f"/><rect width="400" height="300" fill="url(#painting-hero-yamato_battlecruiser-1-123-sky)"/><path d="M-20 110Q16 59 67 79Q104 31 149 69Q196 23 233 69Q285 48 322 95Q366 65 421 87V153H-20Z" fill="#263a49" stroke="none" stroke-width="0" stroke-linejoin="round" stroke-linecap="round" opacity=".35"/><path d="M-15 176Q39 118 109 154Q160 111 214 153Q281 104 341 144Q380 111 421 142V236H-15Z" fill="#1c2937" stroke="none" stroke-width="0" stroke-linejoin="round" stroke-linecap="round" opacity=".6"/><path d="M0 238L64 212L94 251L130 224L160 247L219 224L292 247L339 211L400 227V300H0Z" fill="#262d30" stroke="none" stroke-width="1.7" stroke-linejoin="round" stroke-linecap="round" /><path d="M13 250L46 236M287 263L330 236" fill="none" stroke="#647983" stroke-width="1" stroke-linejoin="round" stroke-linecap="round" opacity=".3"/><ellipse cx="199" cy="155" rx="168" ry="144" fill="url(#painting-hero-yamato_battlecruiser-1-123-glow)" stroke="none" stroke-width="0" opacity=".055"/><ellipse cx="201" cy="271" rx="131" ry="19" fill="#03080d" stroke="none" stroke-width="0" opacity=".8"/><g><g class="im-drawn-unit" data-unit-index="1" data-unit-scale="1" transform="translate(0 0)" filter="url(#painting-hero-yamato_battlecruiser-1-123-rim)"><path d="M80 113L141 73L197 94L217 145L208 201L162 218L99 188L66 154Z" fill="url(#painting-hero-yamato_battlecruiser-1-123-armor)" stroke="#071018" stroke-width="1.7" stroke-linejoin="round" stroke-linecap="round" /><path d="M169 138L279 100L339 120L340 165L288 190L188 198Z" fill="url(#painting-hero-yamato_battlecruiser-1-123-armor)" stroke="#071018" stroke-width="1.7" stroke-linejoin="round" stroke-linecap="round" /><path d="M117 124L174 104L212 127L215 160L169 181L124 168Z" fill="url(#painting-hero-yamato_battlecruiser-1-123-steel)" stroke="#071018" stroke-width="1.7" stroke-linejoin="round" stroke-linecap="round" /><path d="M199 113L252 78L321 85L348 109L330 128L264 132L226 149Z" fill="url(#painting-hero-yamato_battlecruiser-1-123-steel)" stroke="#071018" stroke-width="1.7" stroke-linejoin="round" stroke-linecap="round" /><path d="M267 166L339 163L354 189L321 213L259 204L220 177Z" fill="url(#painting-hero-yamato_battlecruiser-1-123-steel)" stroke="#071018" stroke-width="1.7" stroke-linejoin="round" stroke-linecap="round" /><path d="M80 129L133 119L162 148L143 169L80 157L60 146Z" fill="url(#painting-hero-yamato_battlecruiser-1-123-dark)" stroke="#071018" stroke-width="1.7" stroke-linejoin="round" stroke-linecap="round" /><path d="M94 86L97 62L117 58L130 99M145 98L161 70L184 76L187 122" fill="url(#painting-hero-yamato_battlecruiser-1-123-armor)" stroke="#071018" stroke-width="1.7" stroke-linejoin="round" stroke-linecap="round" /><path d="M250 144l-2 9" fill="none" stroke="url(#painting-hero-yamato_battlecruiser-1-123-dark)" stroke-width="2.5" stroke-linejoin="round" stroke-linecap="round" /><path d="M255 144l-2 9" fill="none" stroke="url(#painting-hero-yamato_battlecruiser-1-123-dark)" stroke-width="2.5" stroke-linejoin="round" stroke-linecap="round" /><path d="M260 144l-2 9" fill="none" stroke="url(#painting-hero-yamato_battlecruiser-1-123-dark)" stroke-width="2.5" stroke-linejoin="round" stroke-linecap="round" /><path d="M265 144l-2 9" fill="none" stroke="url(#painting-hero-yamato_battlecruiser-1-123-dark)" stroke-width="2.5" stroke-linejoin="round" stroke-linecap="round" /><path d="M270 144l-2 9" fill="none" stroke="url(#painting-hero-yamato_battlecruiser-1-123-dark)" stroke-width="2.5" stroke-linejoin="round" stroke-linecap="round" /><path d="M275 144l-2 9" fill="none" stroke="url(#painting-hero-yamato_battlecruiser-1-123-dark)" stroke-width="2.5" stroke-linejoin="round" stroke-linecap="round" /><path d="M280 144l-2 9" fill="none" stroke="url(#painting-hero-yamato_battlecruiser-1-123-dark)" stroke-width="2.5" stroke-linejoin="round" stroke-linecap="round" /><path d="M285 144l-2 9" fill="none" stroke="url(#painting-hero-yamato_battlecruiser-1-123-dark)" stroke-width="2.5" stroke-linejoin="round" stroke-linecap="round" /><path d="M290 144l-2 9" fill="none" stroke="url(#painting-hero-yamato_battlecruiser-1-123-dark)" stroke-width="2.5" stroke-linejoin="round" stroke-linecap="round" /><path d="M295 144l-2 9" fill="none" stroke="url(#painting-hero-yamato_battlecruiser-1-123-dark)" stroke-width="2.5" stroke-linejoin="round" stroke-linecap="round" /><path d="M300 144l-2 9" fill="none" stroke="url(#painting-hero-yamato_battlecruiser-1-123-dark)" stroke-width="2.5" stroke-linejoin="round" stroke-linecap="round" /><path d="M305 144l-2 9" fill="none" stroke="url(#painting-hero-yamato_battlecruiser-1-123-dark)" stroke-width="2.5" stroke-linejoin="round" stroke-linecap="round" /><path d="M310 144l-2 9" fill="none" stroke="url(#painting-hero-yamato_battlecruiser-1-123-dark)" stroke-width="2.5" stroke-linejoin="round" stroke-linecap="round" /><path d="M315 144l-2 9" fill="none" stroke="url(#painting-hero-yamato_battlecruiser-1-123-dark)" stroke-width="2.5" stroke-linejoin="round" stroke-linecap="round" /><path d="M94 131L136 128M214 132L269 111M265 180L320 191M132 90L159 105" fill="none" stroke="#a2b8c1" stroke-width="2" stroke-linejoin="round" stroke-linecap="round" /><ellipse cx="82" cy="143" rx="14" ry="13" fill="url(#painting-hero-yamato_battlecruiser-1-123-glow)" stroke="#09141b" stroke-width="1.5" /><path d="M52 137L75 132L79 155L53 156Z" fill="url(#painting-hero-yamato_battlecruiser-1-123-glow)" stroke="none" stroke-width="1.7" stroke-linejoin="round" stroke-linecap="round" /><path d="M58 144L1 142" fill="none" stroke="#a8d8ec" stroke-width="5" stroke-linejoin="round" stroke-linecap="round" opacity=".75"/></g></g><ellipse cx="31" cy="89" rx="0.6" ry="0.6" fill="#a8d8ec" stroke="none" stroke-width="0" opacity="0.16"/><ellipse cx="128" cy="130" rx="1" ry="1" fill="#a4b1b4" stroke="none" stroke-width="0" opacity="0.23"/><ellipse cx="225" cy="171" rx="1.4" ry="1.4" fill="#a4b1b4" stroke="none" stroke-width="0" opacity="0.30000000000000004"/><ellipse cx="322" cy="212" rx="0.6" ry="0.6" fill="#a4b1b4" stroke="none" stroke-width="0" opacity="0.37"/><ellipse cx="21" cy="253" rx="1" ry="1" fill="#a8d8ec" stroke="none" stroke-width="0" opacity="0.44000000000000006"/><ellipse cx="118" cy="6" rx="1.4" ry="1.4" fill="#a4b1b4" stroke="none" stroke-width="0" opacity="0.16"/><ellipse cx="215" cy="47" rx="0.6" ry="0.6" fill="#a4b1b4" stroke="none" stroke-width="0" opacity="0.23"/><ellipse cx="312" cy="88" rx="1" ry="1" fill="#a4b1b4" stroke="none" stroke-width="0" opacity="0.30000000000000004"/><ellipse cx="11" cy="129" rx="1.4" ry="1.4" fill="#a8d8ec" stroke="none" stroke-width="0" opacity="0.37"/><ellipse cx="108" cy="170" rx="0.6" ry="0.6" fill="#a4b1b4" stroke="none" stroke-width="0" opacity="0.44000000000000006"/><ellipse cx="205" cy="211" rx="1" ry="1" fill="#a4b1b4" stroke="none" stroke-width="0" opacity="0.16"/><ellipse cx="302" cy="252" rx="1.4" ry="1.4" fill="#a4b1b4" stroke="none" stroke-width="0" opacity="0.23"/><ellipse cx="1" cy="5" rx="0.6" ry="0.6" fill="#a8d8ec" stroke="none" stroke-width="0" opacity="0.30000000000000004"/><ellipse cx="98" cy="46" rx="1" ry="1" fill="#a4b1b4" stroke="none" stroke-width="0" opacity="0.37"/><ellipse cx="195" cy="87" rx="1.4" ry="1.4" fill="#a4b1b4" stroke="none" stroke-width="0" opacity="0.44000000000000006"/><ellipse cx="292" cy="128" rx="0.6" ry="0.6" fill="#a4b1b4" stroke="none" stroke-width="0" opacity="0.16"/><ellipse cx="389" cy="169" rx="1" ry="1" fill="#a8d8ec" stroke="none" stroke-width="0" opacity="0.23"/><ellipse cx="88" cy="210" rx="1.4" ry="1.4" fill="#a4b1b4" stroke="none" stroke-width="0" opacity="0.30000000000000004"/><ellipse cx="185" cy="251" rx="0.6" ry="0.6" fill="#a4b1b4" stroke="none" stroke-width="0" opacity="0.37"/><ellipse cx="282" cy="4" rx="1" ry="1" fill="#a4b1b4" stroke="none" stroke-width="0" opacity="0.44000000000000006"/><ellipse cx="379" cy="45" rx="1.4" ry="1.4" fill="#a8d8ec" stroke="none" stroke-width="0" opacity="0.16"/><ellipse cx="78" cy="86" rx="0.6" ry="0.6" fill="#a4b1b4" stroke="none" stroke-width="0" opacity="0.23"/><ellipse cx="175" cy="127" rx="1" ry="1" fill="#a4b1b4" stroke="none" stroke-width="0" opacity="0.30000000000000004"/><ellipse cx="272" cy="168" rx="1.4" ry="1.4" fill="#a4b1b4" stroke="none" stroke-width="0" opacity="0.37"/><rect width="400" height="300" fill="url(#painting-hero-yamato_battlecruiser-1-123-vignette)" pointer-events="none"/></svg>