<svg xmlns="http://www.w3.org/2000/svg" width="1200" height="900" class="im-unit-painting" viewBox="0 0 400 300" preserveAspectRatio="xMidYMid meet" role="img" aria-label="隐秘女妖，1 个战士；双旋翼 · 隐形轰炸机；半透明翼缘与隐形涟漪" data-family="banshee" data-body-count="1" data-elite-identity="banshee.2" data-visual-feature="cloak" focusable="false"><defs><linearGradient id="painting-elite-variant-banshee-2-purple-53-armor" x1=".12" y1="0" x2=".8" y2=".94" gradientUnits="objectBoundingBox"><stop stop-color="#a2b8c1"/><stop offset=".18" stop-color="#375b75"/><stop offset=".42" stop-color="#375b75"/><stop offset=".71" stop-color="#1c2d3b"/><stop offset="1" stop-color="#0b1520"/></linearGradient><linearGradient id="painting-elite-variant-banshee-2-purple-53-steel" x1="0" y1="0" x2=".9" y2="1"><stop stop-color="#a2b8c1"/><stop offset=".22" stop-color="#375b75"/><stop offset=".49" stop-color="#62727d"/><stop offset=".64" stop-color="#1c2d3b"/><stop offset="1" stop-color="#18232c"/></linearGradient><linearGradient id="painting-elite-variant-banshee-2-purple-53-dark" x1="0" x2="1" y2="1"><stop stop-color="#3a4550"/><stop offset=".45" stop-color="#18232d"/><stop offset="1" stop-color="#050c17"/></linearGradient><linearGradient id="painting-elite-variant-banshee-2-purple-53-skin" x1="0" y1="0" x2="1" y2="1"><stop stop-color="#729096"/><stop offset=".27" stop-color="#3d5364"/><stop offset="1" stop-color="#132533"/></linearGradient><linearGradient id="painting-elite-variant-banshee-2-purple-53-bone" x1="0" y1="0" x2="1" y2="1"><stop stop-color="#e5d8b6"/><stop offset=".25" stop-color="#baa592"/><stop offset=".67" stop-color="#7e6662"/><stop offset="1" stop-color="#3e3043"/></linearGradient><linearGradient id="painting-elite-variant-banshee-2-purple-53-glass" x1="0" y1="0" x2="1" y2="1"><stop stop-color="#acb8e5"/><stop offset=".17" stop-color="#84b4c0"/><stop offset=".45" stop-color="#315064"/><stop offset="1" stop-color="#080f20"/></linearGradient><radialGradient id="painting-elite-variant-banshee-2-purple-53-glow"><stop stop-color="#eef5d8"/><stop offset=".25" stop-color="#acb8e5"/><stop offset=".78" stop-color="#317080"/><stop offset="1" stop-color="#1a3948"/></radialGradient><linearGradient id="painting-elite-variant-banshee-2-purple-53-fire" x1="0" y1=".5" x2="1" y2=".5"><stop stop-color="#f7dd99"/><stop offset=".35" stop-color="#d8824e"/><stop offset="1" stop-color="#a34c3630"/></linearGradient><radialGradient id="painting-elite-variant-banshee-2-purple-53-sky"><stop stop-color="#476274"/><stop offset=".62" stop-color="#182d40"/><stop offset="1" stop-color="#06121f"/></radialGradient><filter id="painting-elite-variant-banshee-2-purple-53-brush" x="-8%" y="-8%" width="116%" height="116%"><feTurbulence type="fractalNoise" baseFrequency=".32" numOctaves="3" seed="31" result="grain"/><feColorMatrix in="grain" type="saturate" values="0"/><feComposite operator="in" in2="SourceGraphic"/><feBlend in="SourceGraphic" mode="soft-light"/></filter><filter id="painting-elite-variant-banshee-2-purple-53-rim" x="-14%" y="-14%" width="128%" height="128%"><feDropShadow dx="-1" dy="-1" stdDeviation=".5" flood-color="#acb8e5" flood-opacity=".45"/><feDropShadow dx="3" dy="5" stdDeviation="3" flood-color="#020810" flood-opacity=".75"/></filter><radialGradient id="painting-elite-variant-banshee-2-purple-53-vignette"><stop offset=".48" stop-color="#04101b00"/><stop offset="1" stop-color="#03101abb"/></radialGradient></defs><rect width="400" height="300" fill="#06131f"/><rect width="400" height="300" fill="url(#painting-elite-variant-banshee-2-purple-53-sky)"/><path d="M-20 110Q16 59 67 79Q104 31 149 69Q196 23 233 69Q285 48 322 95Q366 65 421 87V153H-20Z" fill="#263a49" stroke="none" stroke-width="0" stroke-linejoin="round" stroke-linecap="round" opacity=".35"/><path d="M-15 176Q39 118 109 154Q160 111 214 153Q281 104 341 144Q380 111 421 142V236H-15Z" fill="#1c2937" stroke="none" stroke-width="0" stroke-linejoin="round" stroke-linecap="round" opacity=".6"/><path d="M0 238L64 212L94 251L130 224L160 247L219 224L292 247L339 211L400 227V300H0Z" fill="#262d30" stroke="none" stroke-width="1.7" stroke-linejoin="round" stroke-linecap="round" /><path d="M13 250L46 236M287 263L330 236" fill="none" stroke="#647983" stroke-width="1" stroke-linejoin="round" stroke-linecap="round" opacity=".3"/><ellipse cx="199" cy="155" rx="168" ry="144" fill="url(#painting-elite-variant-banshee-2-purple-53-glow)" stroke="none" stroke-width="0" opacity=".055"/><ellipse cx="201" cy="271" rx="131" ry="19" fill="#03080d" stroke="none" stroke-width="0" opacity=".8"/><g><g class="im-drawn-unit" data-unit-index="1" data-unit-scale="1" transform="translate(0 0)" filter="url(#painting-elite-variant-banshee-2-purple-53-rim)"><ellipse cx="104" cy="118" rx="54" ry="26" fill="url(#painting-elite-variant-banshee-2-purple-53-dark)" stroke="#09141b" stroke-width="1.5" /><ellipse cx="104" cy="111" rx="48" ry="23" fill="url(#painting-elite-variant-banshee-2-purple-53-steel)" stroke="#09141b" stroke-width="1.5" /><ellipse cx="104" cy="110" rx="38" ry="18" fill="url(#painting-elite-variant-banshee-2-purple-53-dark)" stroke="#09141b" stroke-width="1.5" /><path d="M73 108L138 112M104 94L104 128" fill="none" stroke="#a2b8c1" stroke-width="3" stroke-linejoin="round" stroke-linecap="round" /><ellipse cx="280" cy="172" rx="58" ry="27" fill="url(#painting-elite-variant-banshee-2-purple-53-dark)" stroke="#09141b" stroke-width="1.5" /><ellipse cx="281" cy="164" rx="52" ry="24" fill="url(#painting-elite-variant-banshee-2-purple-53-steel)" stroke="#09141b" stroke-width="1.5" /><ellipse cx="281" cy="163" rx="41" ry="18" fill="url(#painting-elite-variant-banshee-2-purple-53-dark)" stroke="#09141b" stroke-width="1.5" /><path d="M245 160L316 165M281 145L280 181" fill="none" stroke="#a2b8c1" stroke-width="3" stroke-linejoin="round" stroke-linecap="round" /><path d="M124 117L136 82L160 70L184 89L204 138L236 184L232 220L212 234L179 207L151 164Z" fill="url(#painting-elite-variant-banshee-2-purple-53-armor)" stroke="#071018" stroke-width="1.7" stroke-linejoin="round" stroke-linecap="round" /><path d="M138 90L159 80L175 91L184 119L157 130L138 118Z" fill="url(#painting-elite-variant-banshee-2-purple-53-glass)" stroke="#071018" stroke-width="1.7" stroke-linejoin="round" stroke-linecap="round" /><path d="M150 136L182 122L201 151L194 175L165 168Z" fill="url(#painting-elite-variant-banshee-2-purple-53-steel)" stroke="#071018" stroke-width="1.7" stroke-linejoin="round" stroke-linecap="round" /><path d="M174 181L204 166L221 192L220 218L207 224L184 205Z" fill="url(#painting-elite-variant-banshee-2-purple-53-steel)" stroke="#071018" stroke-width="1.7" stroke-linejoin="round" stroke-linecap="round" /><path d="M144 104L131 137L146 156L156 132Z" fill="url(#painting-elite-variant-banshee-2-purple-53-dark)" stroke="#071018" stroke-width="1.7" stroke-linejoin="round" stroke-linecap="round" /><path d="M193 138L214 126L238 144L240 164L216 178Z" fill="url(#painting-elite-variant-banshee-2-purple-53-dark)" stroke="#071018" stroke-width="1.7" stroke-linejoin="round" stroke-linecap="round" /><path d="M177 183l-2 9" fill="none" stroke="url(#painting-elite-variant-banshee-2-purple-53-dark)" stroke-width="2.5" stroke-linejoin="round" stroke-linecap="round" /><path d="M182 183l-2 9" fill="none" stroke="url(#painting-elite-variant-banshee-2-purple-53-dark)" stroke-width="2.5" stroke-linejoin="round" stroke-linecap="round" /><path d="M187 183l-2 9" fill="none" stroke="url(#painting-elite-variant-banshee-2-purple-53-dark)" stroke-width="2.5" stroke-linejoin="round" stroke-linecap="round" /><path d="M192 183l-2 9" fill="none" stroke="url(#painting-elite-variant-banshee-2-purple-53-dark)" stroke-width="2.5" stroke-linejoin="round" stroke-linecap="round" /><path d="M197 183l-2 9" fill="none" stroke="url(#painting-elite-variant-banshee-2-purple-53-dark)" stroke-width="2.5" stroke-linejoin="round" stroke-linecap="round" /><path d="M137 95L149 86L163 89M167 147L187 140M191 195L210 190" fill="none" stroke="#a2b8c1" stroke-width="2" stroke-linejoin="round" stroke-linecap="round" /><ellipse cx="158" cy="136" rx="1.5" ry="1.5" fill="#a2b8c1" stroke="#050c12" stroke-width="0.7" /><ellipse cx="182" cy="164" rx="1.5" ry="1.5" fill="#a2b8c1" stroke="#050c12" stroke-width="0.7" /><ellipse cx="209" cy="203" rx="1.5" ry="1.5" fill="#a2b8c1" stroke="#050c12" stroke-width="0.7" /><ellipse cx="216" cy="183" rx="1.5" ry="1.5" fill="#a2b8c1" stroke="#050c12" stroke-width="0.7" /><path d="M173 144L188 144L195 156L184 168L176 156Z" fill="url(#painting-elite-variant-banshee-2-purple-53-dark)" stroke="#071018" stroke-width="1.7" stroke-linejoin="round" stroke-linecap="round" /><path d="M179 148L186 150" fill="none" stroke="#acb8e5" stroke-width="2" stroke-linejoin="round" stroke-linecap="round" /><path d="M43 79Q123 45 165 83M236 231Q301 222 344 171" fill="none" stroke="#acb8e5" stroke-width="2" stroke-linejoin="round" stroke-linecap="round" stroke-dasharray="11 7"/><path d="M79 66Q148 53 203 100M270 192L295 219L278 242M88 146L80 171" fill="none" stroke="#acb8e5" stroke-width="2" stroke-linejoin="round" stroke-linecap="round" opacity=".6" stroke-dasharray="7 5"/></g></g><ellipse cx="31" cy="89" rx="0.6" ry="0.6" fill="#acb8e5" stroke="none" stroke-width="0" opacity="0.16"/><ellipse cx="128" cy="130" rx="1" ry="1" fill="#a4b1b4" stroke="none" stroke-width="0" opacity="0.23"/><ellipse cx="225" cy="171" rx="1.4" ry="1.4" fill="#a4b1b4" stroke="none" stroke-width="0" opacity="0.30000000000000004"/><ellipse cx="322" cy="212" rx="0.6" ry="0.6" fill="#a4b1b4" stroke="none" stroke-width="0" opacity="0.37"/><ellipse cx="21" cy="253" rx="1" ry="1" fill="#acb8e5" stroke="none" stroke-width="0" opacity="0.44000000000000006"/><ellipse cx="118" cy="6" rx="1.4" ry="1.4" fill="#a4b1b4" stroke="none" stroke-width="0" opacity="0.16"/><ellipse cx="215" cy="47" rx="0.6" ry="0.6" fill="#a4b1b4" stroke="none" stroke-width="0" opacity="0.23"/><ellipse cx="312" cy="88" rx="1" ry="1" fill="#a4b1b4" stroke="none" stroke-width="0" opacity="0.30000000000000004"/><ellipse cx="11" cy="129" rx="1.4" ry="1.4" fill="#acb8e5" stroke="none" stroke-width="0" opacity="0.37"/><ellipse cx="108" cy="170" rx="0.6" ry="0.6" fill="#a4b1b4" stroke="none" stroke-width="0" opacity="0.44000000000000006"/><ellipse cx="205" cy="211" rx="1" ry="1" fill="#a4b1b4" stroke="none" stroke-width="0" opacity="0.16"/><ellipse cx="302" cy="252" rx="1.4" ry="1.4" fill="#a4b1b4" stroke="none" stroke-width="0" opacity="0.23"/><ellipse cx="1" cy="5" rx="0.6" ry="0.6" fill="#acb8e5" stroke="none" stroke-width="0" opacity="0.30000000000000004"/><ellipse cx="98" cy="46" rx="1" ry="1" fill="#a4b1b4" stroke="none" stroke-width="0" opacity="0.37"/><ellipse cx="195" cy="87" rx="1.4" ry="1.4" fill="#a4b1b4" stroke="none" stroke-width="0" opacity="0.44000000000000006"/><ellipse cx="292" cy="128" rx="0.6" ry="0.6" fill="#a4b1b4" stroke="none" stroke-width="0" opacity="0.16"/><ellipse cx="389" cy="169" rx="1" ry="1" fill="#acb8e5" stroke="none" stroke-width="0" opacity="0.23"/><ellipse cx="88" cy="210" rx="1.4" ry="1.4" fill="#a4b1b4" stroke="none" stroke-width="0" opacity="0.30000000000000004"/><ellipse cx="185" cy="251" rx="0.6" ry="0.6" fill="#a4b1b4" stroke="none" stroke-width="0" opacity="0.37"/><ellipse cx="282" cy="4" rx="1" ry="1" fill="#a4b1b4" stroke="none" stroke-width="0" opacity="0.44000000000000006"/><ellipse cx="379" cy="45" rx="1.4" ry="1.4" fill="#acb8e5" stroke="none" stroke-width="0" opacity="0.16"/><ellipse cx="78" cy="86" rx="0.6" ry="0.6" fill="#a4b1b4" stroke="none" stroke-width="0" opacity="0.23"/><ellipse cx="175" cy="127" rx="1" ry="1" fill="#a4b1b4" stroke="none" stroke-width="0" opacity="0.30000000000000004"/><ellipse cx="272" cy="168" rx="1.4" ry="1.4" fill="#a4b1b4" stroke="none" stroke-width="0" opacity="0.37"/><rect width="400" height="300" fill="url(#painting-elite-variant-banshee-2-purple-53-vignette)" pointer-events="none"/></svg>